<svg width="44" height="42" viewBox="0 0 44 42" fill="none" xmlns="http://www.w3.org/2000/svg">
<path d="M32.42 15.2908L23.66 0.920078C23.28 0.306693 22.64 0 22 0C21.36 0 20.72 0.306693 20.34 0.941984L11.58 15.2908H2C0.9 15.2908 0 16.2766 0 17.4815C0 17.6786 0.0199999 17.8758 0.0799999 18.073L5.16 38.3804C5.62 40.2205 7.16 41.5787 9 41.5787H35C36.84 41.5787 38.38 40.2205 38.86 38.3804L43.94 18.073L44 17.4815C44 16.2766 43.1 15.2908 42 15.2908H32.42ZM16 15.2908L22 5.65191L28 15.2908H16ZM22 32.8161C19.8 32.8161 18 30.8445 18 28.4348C18 26.0251 19.8 24.0535 22 24.0535C24.2 24.0535 26 26.0251 26 28.4348C26 30.8445 24.2 32.8161 22 32.8161Z" fill="white"/>
</svg>
